<mxfile host="app.diagrams.net" agent="Mozilla/5.0 (Windows NT 10.0; Win64; x64) AppleWebKit/537.36 (KHTML, like Gecko) Chrome/137.0.0.0 Safari/537.36" version="27.1.5">
  <diagram name="PÃ¡gina-1" id="SDQelFRiFRMeIGBvJmgm">
    <mxGraphModel dx="951" dy="523" grid="1" gridSize="10" guides="1" tooltips="1" connect="1" arrows="1" fold="1" page="1" pageScale="1" pageWidth="827" pageHeight="1169" math="0" shadow="0">
      <root>
        <mxCell id="0" />
        <mxCell id="1" parent="0" />
        <mxCell id="mJIIwZMwGOgM9kil12BN-1" value="" style="ellipse;shape=cloud;whiteSpace=wrap;html=1;fontStyle=1" vertex="1" parent="1">
          <mxGeometry x="280" y="110" width="80" height="50" as="geometry" />
        </mxCell>
        <mxCell id="mJIIwZMwGOgM9kil12BN-2" value="" style="ellipse;shape=cloud;whiteSpace=wrap;html=1;fontStyle=1" vertex="1" parent="1">
          <mxGeometry x="380" y="110" width="80" height="50" as="geometry" />
        </mxCell>
        <mxCell id="mJIIwZMwGOgM9kil12BN-3" value="&lt;span&gt;WAN1&lt;/span&gt;" style="text;html=1;align=center;verticalAlign=middle;resizable=0;points=[];autosize=1;strokeColor=none;fillColor=none;fontStyle=1" vertex="1" parent="1">
          <mxGeometry x="290" y="120" width="60" height="30" as="geometry" />
        </mxCell>
        <mxCell id="mJIIwZMwGOgM9kil12BN-4" value="&lt;span&gt;WAN2&lt;/span&gt;" style="text;html=1;align=center;verticalAlign=middle;resizable=0;points=[];autosize=1;strokeColor=none;fillColor=none;fontStyle=1" vertex="1" parent="1">
          <mxGeometry x="390" y="120" width="60" height="30" as="geometry" />
        </mxCell>
        <mxCell id="mJIIwZMwGOgM9kil12BN-5" value="" style="fillColorStyles=neutralFill;neutralFill=#9DA6A8;shape=mxgraph.networks2.icon;aspect=fixed;fillColor=#EDEDED;strokeColor=#000000;gradientColor=#5B6163;network2IconShadow=1;network2bgFillColor=none;network2Icon=mxgraph.networks2.modem;network2IconYOffset=0.0131;network2IconW=1;network2IconH=0.2938;fontStyle=1" vertex="1" parent="1">
          <mxGeometry x="295" y="180" width="50" height="14.69" as="geometry" />
        </mxCell>
        <mxCell id="mJIIwZMwGOgM9kil12BN-6" value="" style="fillColorStyles=neutralFill;neutralFill=#9DA6A8;shape=mxgraph.networks2.icon;aspect=fixed;fillColor=#EDEDED;strokeColor=#000000;gradientColor=#5B6163;network2IconShadow=1;network2bgFillColor=none;network2Icon=mxgraph.networks2.modem;network2IconYOffset=0.0131;network2IconW=1;network2IconH=0.2938;fontStyle=1" vertex="1" parent="1">
          <mxGeometry x="400" y="180" width="50" height="14.69" as="geometry" />
        </mxCell>
        <mxCell id="mJIIwZMwGOgM9kil12BN-7" value="" style="image;html=1;image=img/lib/clip_art/networking/Modem_128x128.png;fontStyle=1" vertex="1" parent="1">
          <mxGeometry x="334" y="220" width="66" height="50" as="geometry" />
        </mxCell>
        <mxCell id="mJIIwZMwGOgM9kil12BN-11" style="edgeStyle=orthogonalEdgeStyle;rounded=0;orthogonalLoop=1;jettySize=auto;html=1;entryX=0.491;entryY=-0.207;entryDx=0;entryDy=0;entryPerimeter=0;fontStyle=1" edge="1" parent="1" source="mJIIwZMwGOgM9kil12BN-3" target="mJIIwZMwGOgM9kil12BN-5">
          <mxGeometry relative="1" as="geometry" />
        </mxCell>
        <mxCell id="mJIIwZMwGOgM9kil12BN-13" style="edgeStyle=orthogonalEdgeStyle;rounded=0;orthogonalLoop=1;jettySize=auto;html=1;entryX=0.391;entryY=-0.143;entryDx=0;entryDy=0;entryPerimeter=0;fontStyle=1" edge="1" parent="1" source="mJIIwZMwGOgM9kil12BN-4" target="mJIIwZMwGOgM9kil12BN-6">
          <mxGeometry relative="1" as="geometry" />
        </mxCell>
        <mxCell id="mJIIwZMwGOgM9kil12BN-15" value="" style="image;html=1;image=img/lib/clip_art/networking/Switch_128x128.png;fontStyle=1" vertex="1" parent="1">
          <mxGeometry x="332" y="290" width="76" height="70" as="geometry" />
        </mxCell>
        <mxCell id="mJIIwZMwGOgM9kil12BN-17" value="" style="image;html=1;image=img/lib/clip_art/networking/Switch_128x128.png;fontStyle=1" vertex="1" parent="1">
          <mxGeometry x="444" y="290" width="76" height="70" as="geometry" />
        </mxCell>
        <mxCell id="mJIIwZMwGOgM9kil12BN-18" value="" style="image;points=[];aspect=fixed;html=1;align=center;shadow=0;dashed=0;image=img/lib/allied_telesis/switch/Switch_24_port_L2_POE.svg;fontStyle=1" vertex="1" parent="1">
          <mxGeometry x="230.92000000000002" y="304.75" width="59.08" height="40.5" as="geometry" />
        </mxCell>
        <mxCell id="mJIIwZMwGOgM9kil12BN-19" value="" style="endArrow=none;html=1;rounded=0;entryX=0.5;entryY=1;entryDx=0;entryDy=0;exitX=0.434;exitY=0.286;exitDx=0;exitDy=0;exitPerimeter=0;fontStyle=1" edge="1" parent="1" source="mJIIwZMwGOgM9kil12BN-15" target="mJIIwZMwGOgM9kil12BN-7">
          <mxGeometry width="50" height="50" relative="1" as="geometry">
            <mxPoint x="420" y="360" as="sourcePoint" />
            <mxPoint x="470" y="310" as="targetPoint" />
          </mxGeometry>
        </mxCell>
        <mxCell id="mJIIwZMwGOgM9kil12BN-20" value="" style="endArrow=none;dashed=1;html=1;rounded=0;entryX=1;entryY=0.681;entryDx=0;entryDy=0;entryPerimeter=0;exitX=0.695;exitY=0.06;exitDx=0;exitDy=0;exitPerimeter=0;fontStyle=1" edge="1" parent="1" source="mJIIwZMwGOgM9kil12BN-7" target="mJIIwZMwGOgM9kil12BN-6">
          <mxGeometry width="50" height="50" relative="1" as="geometry">
            <mxPoint x="420" y="360" as="sourcePoint" />
            <mxPoint x="470" y="310" as="targetPoint" />
          </mxGeometry>
        </mxCell>
        <mxCell id="mJIIwZMwGOgM9kil12BN-21" value="" style="endArrow=none;dashed=1;html=1;rounded=0;entryX=0.006;entryY=1.06;entryDx=0;entryDy=0;entryPerimeter=0;exitX=0.25;exitY=0;exitDx=0;exitDy=0;fontStyle=1" edge="1" parent="1" source="mJIIwZMwGOgM9kil12BN-7" target="mJIIwZMwGOgM9kil12BN-5">
          <mxGeometry width="50" height="50" relative="1" as="geometry">
            <mxPoint x="420" y="360" as="sourcePoint" />
            <mxPoint x="470" y="310" as="targetPoint" />
          </mxGeometry>
        </mxCell>
        <mxCell id="mJIIwZMwGOgM9kil12BN-22" value="" style="endArrow=none;dashed=1;html=1;rounded=0;exitX=0.972;exitY=0.414;exitDx=0;exitDy=0;exitPerimeter=0;entryX=-0.009;entryY=0.431;entryDx=0;entryDy=0;entryPerimeter=0;fontStyle=1" edge="1" parent="1" source="mJIIwZMwGOgM9kil12BN-15" target="mJIIwZMwGOgM9kil12BN-17">
          <mxGeometry width="50" height="50" relative="1" as="geometry">
            <mxPoint x="420" y="360" as="sourcePoint" />
            <mxPoint x="470" y="310" as="targetPoint" />
          </mxGeometry>
        </mxCell>
        <mxCell id="mJIIwZMwGOgM9kil12BN-23" value="" style="fontColor=#0066CC;verticalAlign=top;verticalLabelPosition=bottom;labelPosition=center;align=center;html=1;outlineConnect=0;fillColor=#CCCCCC;strokeColor=#6881B3;gradientColor=none;gradientDirection=north;strokeWidth=2;shape=mxgraph.networks.security_camera;fontStyle=1" vertex="1" parent="1">
          <mxGeometry x="150" y="310" width="50" height="30" as="geometry" />
        </mxCell>
        <mxCell id="mJIIwZMwGOgM9kil12BN-24" value="" style="fontColor=#0066CC;verticalAlign=top;verticalLabelPosition=bottom;labelPosition=center;align=center;html=1;outlineConnect=0;fillColor=#CCCCCC;strokeColor=#6881B3;gradientColor=none;gradientDirection=north;strokeWidth=2;shape=mxgraph.networks.security_camera;fontStyle=1" vertex="1" parent="1">
          <mxGeometry x="150" y="345.25" width="50" height="30" as="geometry" />
        </mxCell>
        <mxCell id="mJIIwZMwGOgM9kil12BN-25" value="" style="fontColor=#0066CC;verticalAlign=top;verticalLabelPosition=bottom;labelPosition=center;align=center;html=1;outlineConnect=0;fillColor=#CCCCCC;strokeColor=#6881B3;gradientColor=none;gradientDirection=north;strokeWidth=2;shape=mxgraph.networks.security_camera;fontStyle=1" vertex="1" parent="1">
          <mxGeometry x="150" y="380" width="50" height="30" as="geometry" />
        </mxCell>
        <mxCell id="mJIIwZMwGOgM9kil12BN-26" value="" style="fontColor=#0066CC;verticalAlign=top;verticalLabelPosition=bottom;labelPosition=center;align=center;html=1;outlineConnect=0;fillColor=#CCCCCC;strokeColor=#6881B3;gradientColor=none;gradientDirection=north;strokeWidth=2;shape=mxgraph.networks.security_camera;fontStyle=1" vertex="1" parent="1">
          <mxGeometry x="150" y="420" width="50" height="30" as="geometry" />
        </mxCell>
        <mxCell id="mJIIwZMwGOgM9kil12BN-27" value="" style="endArrow=none;html=1;rounded=0;fillColor=#d5e8d4;strokeColor=#009900;exitX=0;exitY=0.5;exitDx=0;exitDy=0;fontStyle=1" edge="1" parent="1" source="mJIIwZMwGOgM9kil12BN-15" target="mJIIwZMwGOgM9kil12BN-18">
          <mxGeometry width="50" height="50" relative="1" as="geometry">
            <mxPoint x="420" y="360" as="sourcePoint" />
            <mxPoint x="470" y="310" as="targetPoint" />
          </mxGeometry>
        </mxCell>
        <mxCell id="mJIIwZMwGOgM9kil12BN-28" value="" style="endArrow=none;html=1;rounded=0;fillColor=#d5e8d4;strokeColor=#009900;entryX=0.026;entryY=0.338;entryDx=0;entryDy=0;entryPerimeter=0;fontStyle=1" edge="1" parent="1" source="mJIIwZMwGOgM9kil12BN-23" target="mJIIwZMwGOgM9kil12BN-18">
          <mxGeometry width="50" height="50" relative="1" as="geometry">
            <mxPoint x="384" y="380" as="sourcePoint" />
            <mxPoint x="340" y="380" as="targetPoint" />
          </mxGeometry>
        </mxCell>
        <mxCell id="mJIIwZMwGOgM9kil12BN-29" value="" style="endArrow=none;html=1;rounded=0;fillColor=#d5e8d4;strokeColor=#009900;exitX=0;exitY=0.5;exitDx=0;exitDy=0;entryX=0;entryY=1;entryDx=0;entryDy=0;entryPerimeter=0;exitPerimeter=0;fontStyle=1" edge="1" parent="1" source="mJIIwZMwGOgM9kil12BN-24" target="mJIIwZMwGOgM9kil12BN-23">
          <mxGeometry width="50" height="50" relative="1" as="geometry">
            <mxPoint x="274" y="360" as="sourcePoint" />
            <mxPoint x="230" y="360" as="targetPoint" />
          </mxGeometry>
        </mxCell>
        <mxCell id="mJIIwZMwGOgM9kil12BN-30" value="" style="endArrow=none;html=1;rounded=0;fillColor=#d5e8d4;strokeColor=#009900;exitX=0;exitY=0.5;exitDx=0;exitDy=0;entryX=0;entryY=1;entryDx=0;entryDy=0;entryPerimeter=0;exitPerimeter=0;fontStyle=1" edge="1" parent="1" source="mJIIwZMwGOgM9kil12BN-25" target="mJIIwZMwGOgM9kil12BN-24">
          <mxGeometry width="50" height="50" relative="1" as="geometry">
            <mxPoint x="270" y="410" as="sourcePoint" />
            <mxPoint x="270" y="390" as="targetPoint" />
          </mxGeometry>
        </mxCell>
        <mxCell id="mJIIwZMwGOgM9kil12BN-31" value="" style="endArrow=none;html=1;rounded=0;fillColor=#d5e8d4;strokeColor=#009900;exitX=0;exitY=0.5;exitDx=0;exitDy=0;entryX=0;entryY=1;entryDx=0;entryDy=0;entryPerimeter=0;exitPerimeter=0;fontStyle=1" edge="1" parent="1" source="mJIIwZMwGOgM9kil12BN-26" target="mJIIwZMwGOgM9kil12BN-25">
          <mxGeometry width="50" height="50" relative="1" as="geometry">
            <mxPoint x="280" y="440" as="sourcePoint" />
            <mxPoint x="280" y="420" as="targetPoint" />
          </mxGeometry>
        </mxCell>
        <mxCell id="mJIIwZMwGOgM9kil12BN-32" value="" style="image;html=1;image=img/lib/clip_art/computers/Server_Tower_128x128.png;fontStyle=1" vertex="1" parent="1">
          <mxGeometry x="200" y="429" width="80" height="80" as="geometry" />
        </mxCell>
        <mxCell id="mJIIwZMwGOgM9kil12BN-33" value="" style="endArrow=none;html=1;rounded=0;fillColor=#e1d5e7;strokeColor=#4C0099;entryX=0;entryY=0.75;entryDx=0;entryDy=0;exitX=0.5;exitY=0;exitDx=0;exitDy=0;fontStyle=1" edge="1" parent="1" source="mJIIwZMwGOgM9kil12BN-32" target="mJIIwZMwGOgM9kil12BN-15">
          <mxGeometry width="50" height="50" relative="1" as="geometry">
            <mxPoint x="420" y="470" as="sourcePoint" />
            <mxPoint x="470" y="420" as="targetPoint" />
          </mxGeometry>
        </mxCell>
        <mxCell id="mJIIwZMwGOgM9kil12BN-34" value="" style="image;html=1;image=img/lib/clip_art/networking/Wireless_Router_128x128.png;fontStyle=1" vertex="1" parent="1">
          <mxGeometry x="520" y="380" width="50" height="60" as="geometry" />
        </mxCell>
        <mxCell id="mJIIwZMwGOgM9kil12BN-35" value="" style="image;html=1;image=img/lib/clip_art/networking/Wireless_Router_128x128.png;fontStyle=1" vertex="1" parent="1">
          <mxGeometry x="430" y="429" width="50" height="60" as="geometry" />
        </mxCell>
        <mxCell id="mJIIwZMwGOgM9kil12BN-36" value="" style="image;html=1;image=img/lib/clip_art/networking/Wireless_Router_128x128.png;fontStyle=1" vertex="1" parent="1">
          <mxGeometry x="290" y="434.75" width="50" height="60" as="geometry" />
        </mxCell>
        <mxCell id="mJIIwZMwGOgM9kil12BN-37" value="" style="endArrow=none;html=1;rounded=0;entryX=0.25;entryY=1;entryDx=0;entryDy=0;exitX=0.8;exitY=0.5;exitDx=0;exitDy=0;exitPerimeter=0;fontStyle=1" edge="1" parent="1" source="mJIIwZMwGOgM9kil12BN-36" target="mJIIwZMwGOgM9kil12BN-15">
          <mxGeometry width="50" height="50" relative="1" as="geometry">
            <mxPoint x="420" y="470" as="sourcePoint" />
            <mxPoint x="470" y="420" as="targetPoint" />
          </mxGeometry>
        </mxCell>
        <mxCell id="mJIIwZMwGOgM9kil12BN-39" value="" style="endArrow=none;html=1;rounded=0;entryX=0.536;entryY=0.953;entryDx=0;entryDy=0;exitX=0;exitY=0.75;exitDx=0;exitDy=0;entryPerimeter=0;fontStyle=1" edge="1" parent="1" source="mJIIwZMwGOgM9kil12BN-35" target="mJIIwZMwGOgM9kil12BN-15">
          <mxGeometry width="50" height="50" relative="1" as="geometry">
            <mxPoint x="410" y="540" as="sourcePoint" />
            <mxPoint x="433" y="370" as="targetPoint" />
          </mxGeometry>
        </mxCell>
        <mxCell id="mJIIwZMwGOgM9kil12BN-40" value="" style="endArrow=none;html=1;rounded=0;entryX=0.972;entryY=0.61;entryDx=0;entryDy=0;exitX=0;exitY=0.75;exitDx=0;exitDy=0;entryPerimeter=0;fontStyle=1" edge="1" parent="1" source="mJIIwZMwGOgM9kil12BN-34" target="mJIIwZMwGOgM9kil12BN-15">
          <mxGeometry width="50" height="50" relative="1" as="geometry">
            <mxPoint x="470" y="610" as="sourcePoint" />
            <mxPoint x="493" y="440" as="targetPoint" />
          </mxGeometry>
        </mxCell>
        <mxCell id="mJIIwZMwGOgM9kil12BN-41" value="" style="verticalLabelPosition=bottom;sketch=0;aspect=fixed;html=1;verticalAlign=top;strokeColor=none;align=center;outlineConnect=0;shape=mxgraph.citrix.cell_phone;fontStyle=1" vertex="1" parent="1">
          <mxGeometry x="230.92" y="585" width="14.58" height="35" as="geometry" />
        </mxCell>
        <mxCell id="mJIIwZMwGOgM9kil12BN-42" value="" style="verticalLabelPosition=bottom;sketch=0;aspect=fixed;html=1;verticalAlign=top;strokeColor=none;align=center;outlineConnect=0;shape=mxgraph.citrix.cell_phone;fontStyle=1" vertex="1" parent="1">
          <mxGeometry x="265.41999999999996" y="590" width="14.58" height="35" as="geometry" />
        </mxCell>
        <mxCell id="mJIIwZMwGOgM9kil12BN-43" value="" style="endArrow=none;dashed=1;html=1;dashPattern=1 3;strokeWidth=2;rounded=0;fillColor=#ffe6cc;strokeColor=#FF33FF;fontStyle=1" edge="1" parent="1" source="mJIIwZMwGOgM9kil12BN-42" target="mJIIwZMwGOgM9kil12BN-36">
          <mxGeometry width="50" height="50" relative="1" as="geometry">
            <mxPoint x="420" y="590" as="sourcePoint" />
            <mxPoint x="470" y="540" as="targetPoint" />
          </mxGeometry>
        </mxCell>
        <mxCell id="mJIIwZMwGOgM9kil12BN-45" value="" style="endArrow=none;dashed=1;html=1;dashPattern=1 3;strokeWidth=2;rounded=0;exitX=0.014;exitY=0.679;exitDx=0;exitDy=0;exitPerimeter=0;strokeColor=#FF33FF;fontStyle=1" edge="1" parent="1" source="mJIIwZMwGOgM9kil12BN-36" target="mJIIwZMwGOgM9kil12BN-41">
          <mxGeometry width="50" height="50" relative="1" as="geometry">
            <mxPoint x="330" y="631" as="sourcePoint" />
            <mxPoint x="344" y="600" as="targetPoint" />
          </mxGeometry>
        </mxCell>
        <mxCell id="mJIIwZMwGOgM9kil12BN-46" value="" style="image;points=[];aspect=fixed;html=1;align=center;shadow=0;dashed=0;image=img/lib/allied_telesis/computer_and_terminals/POS_keypad.svg;fontStyle=1" vertex="1" parent="1">
          <mxGeometry x="581.4" y="462.4" width="37.2" height="27.6" as="geometry" />
        </mxCell>
        <mxCell id="mJIIwZMwGOgM9kil12BN-47" value="" style="shape=mxgraph.networks2.icon;aspect=fixed;fillColor=#EDEDED;strokeColor=#000000;gradientColor=#5B6163;network2IconShadow=1;network2bgFillColor=none;network2Icon=mxgraph.networks2.pc;network2IconYOffset=-0.0593;network2IconW=0.9999;network2IconH=0.7096;fontStyle=1" vertex="1" parent="1">
          <mxGeometry x="300.01" y="564.52" width="49.995" height="35.480000000000004" as="geometry" />
        </mxCell>
        <mxCell id="mJIIwZMwGOgM9kil12BN-48" value="" style="shape=mxgraph.networks2.icon;aspect=fixed;fillColor=#EDEDED;strokeColor=#000000;gradientColor=#5B6163;network2IconShadow=1;network2bgFillColor=none;network2Icon=mxgraph.networks2.pc;network2IconYOffset=-0.0593;network2IconW=0.9999;network2IconH=0.7096;fontStyle=1" vertex="1" parent="1">
          <mxGeometry x="360.01" y="564.52" width="49.995" height="35.480000000000004" as="geometry" />
        </mxCell>
        <mxCell id="mJIIwZMwGOgM9kil12BN-49" value="" style="shape=mxgraph.networks2.icon;aspect=fixed;fillColor=#EDEDED;strokeColor=#000000;gradientColor=#5B6163;network2IconShadow=1;network2bgFillColor=none;network2Icon=mxgraph.networks2.pc;network2IconYOffset=-0.0593;network2IconW=0.9999;network2IconH=0.7096;fontStyle=1" vertex="1" parent="1">
          <mxGeometry x="420" y="564.52" width="49.995" height="35.480000000000004" as="geometry" />
        </mxCell>
        <mxCell id="mJIIwZMwGOgM9kil12BN-50" value="" style="endArrow=none;dashed=1;html=1;dashPattern=1 3;strokeWidth=2;rounded=0;fillColor=#f8cecc;strokeColor=#FF0000;entryX=1;entryY=0.75;entryDx=0;entryDy=0;exitX=0.541;exitY=0.098;exitDx=0;exitDy=0;exitPerimeter=0;fontStyle=1" edge="1" parent="1" source="mJIIwZMwGOgM9kil12BN-46" target="mJIIwZMwGOgM9kil12BN-34">
          <mxGeometry width="50" height="50" relative="1" as="geometry">
            <mxPoint x="420" y="420" as="sourcePoint" />
            <mxPoint x="470" y="370" as="targetPoint" />
          </mxGeometry>
        </mxCell>
        <mxCell id="mJIIwZMwGOgM9kil12BN-51" value="" style="endArrow=none;dashed=1;html=1;dashPattern=1 3;strokeWidth=2;rounded=0;fillColor=#dae8fc;strokeColor=#007FFF;entryX=0.374;entryY=0.016;entryDx=0;entryDy=0;entryPerimeter=0;exitX=0.037;exitY=0.907;exitDx=0;exitDy=0;exitPerimeter=0;fontStyle=1" edge="1" parent="1" source="mJIIwZMwGOgM9kil12BN-35" target="mJIIwZMwGOgM9kil12BN-47">
          <mxGeometry width="50" height="50" relative="1" as="geometry">
            <mxPoint x="420" y="470" as="sourcePoint" />
            <mxPoint x="470" y="420" as="targetPoint" />
          </mxGeometry>
        </mxCell>
        <mxCell id="mJIIwZMwGOgM9kil12BN-52" value="" style="endArrow=none;dashed=1;html=1;dashPattern=1 3;strokeWidth=2;rounded=0;fillColor=#dae8fc;strokeColor=#007FFF;entryX=0.497;entryY=0.054;entryDx=0;entryDy=0;entryPerimeter=0;exitX=0.369;exitY=0.955;exitDx=0;exitDy=0;exitPerimeter=0;fontStyle=1" edge="1" parent="1" source="mJIIwZMwGOgM9kil12BN-35" target="mJIIwZMwGOgM9kil12BN-48">
          <mxGeometry width="50" height="50" relative="1" as="geometry">
            <mxPoint x="423" y="520" as="sourcePoint" />
            <mxPoint x="390" y="594" as="targetPoint" />
          </mxGeometry>
        </mxCell>
        <mxCell id="mJIIwZMwGOgM9kil12BN-53" value="" style="endArrow=none;dashed=1;html=1;dashPattern=1 3;strokeWidth=2;rounded=0;fillColor=#dae8fc;strokeColor=#007FFF;entryX=0.4;entryY=0;entryDx=0;entryDy=0;entryPerimeter=0;fontStyle=1" edge="1" parent="1" source="mJIIwZMwGOgM9kil12BN-35" target="mJIIwZMwGOgM9kil12BN-49">
          <mxGeometry width="50" height="50" relative="1" as="geometry">
            <mxPoint x="423" y="520" as="sourcePoint" />
            <mxPoint x="490" y="560" as="targetPoint" />
          </mxGeometry>
        </mxCell>
        <mxCell id="mJIIwZMwGOgM9kil12BN-54" value="" style="sketch=0;pointerEvents=1;shadow=0;dashed=0;html=1;strokeColor=none;fillColor=#505050;labelPosition=center;verticalLabelPosition=bottom;verticalAlign=top;outlineConnect=0;align=center;shape=mxgraph.office.devices.tablet_ipad;fontStyle=1" vertex="1" parent="1">
          <mxGeometry x="605.7" y="520" width="31.5" height="42" as="geometry" />
        </mxCell>
        <mxCell id="mJIIwZMwGOgM9kil12BN-57" value="" style="sketch=0;pointerEvents=1;shadow=0;dashed=0;html=1;strokeColor=none;fillColor=#505050;labelPosition=center;verticalLabelPosition=bottom;verticalAlign=top;outlineConnect=0;align=center;shape=mxgraph.office.devices.tablet_ipad;fontStyle=1" vertex="1" parent="1">
          <mxGeometry x="568.5" y="540" width="31.5" height="42" as="geometry" />
        </mxCell>
        <mxCell id="mJIIwZMwGOgM9kil12BN-58" value="" style="image;html=1;image=img/lib/clip_art/computers/Printer_Commercial_128x128.png;fontStyle=1" vertex="1" parent="1">
          <mxGeometry x="476" y="562" width="80" height="80" as="geometry" />
        </mxCell>
        <mxCell id="mJIIwZMwGOgM9kil12BN-59" value="" style="endArrow=none;dashed=1;html=1;dashPattern=1 3;strokeWidth=2;rounded=0;fillColor=#dae8fc;strokeColor=#007FFF;exitX=1.031;exitY=0.64;exitDx=0;exitDy=0;exitPerimeter=0;fontStyle=1" edge="1" parent="1" source="mJIIwZMwGOgM9kil12BN-35" target="mJIIwZMwGOgM9kil12BN-54">
          <mxGeometry width="50" height="50" relative="1" as="geometry">
            <mxPoint x="450" y="590" as="sourcePoint" />
            <mxPoint x="462" y="700" as="targetPoint" />
          </mxGeometry>
        </mxCell>
        <mxCell id="mJIIwZMwGOgM9kil12BN-60" value="" style="endArrow=none;dashed=1;html=1;dashPattern=1 3;strokeWidth=2;rounded=0;fillColor=#dae8fc;strokeColor=#007FFF;exitX=0.94;exitY=0.831;exitDx=0;exitDy=0;exitPerimeter=0;fontStyle=1" edge="1" parent="1" source="mJIIwZMwGOgM9kil12BN-35" target="mJIIwZMwGOgM9kil12BN-57">
          <mxGeometry width="50" height="50" relative="1" as="geometry">
            <mxPoint x="610" y="610" as="sourcePoint" />
            <mxPoint x="622" y="720" as="targetPoint" />
          </mxGeometry>
        </mxCell>
        <mxCell id="mJIIwZMwGOgM9kil12BN-61" value="" style="endArrow=none;dashed=1;html=1;dashPattern=1 3;strokeWidth=2;rounded=0;fillColor=#dae8fc;strokeColor=#007FFF;fontStyle=1" edge="1" parent="1" source="mJIIwZMwGOgM9kil12BN-35" target="mJIIwZMwGOgM9kil12BN-58">
          <mxGeometry width="50" height="50" relative="1" as="geometry">
            <mxPoint x="610" y="630" as="sourcePoint" />
            <mxPoint x="622" y="740" as="targetPoint" />
          </mxGeometry>
        </mxCell>
        <mxCell id="mJIIwZMwGOgM9kil12BN-62" value="&lt;span&gt;&lt;font style=&quot;font-size: 10px;&quot;&gt;Modem Principal&lt;br&gt;192.168.0.2&lt;/font&gt;&lt;/span&gt;" style="text;html=1;align=center;verticalAlign=middle;resizable=0;points=[];autosize=1;strokeColor=none;fillColor=none;fontStyle=1" vertex="1" parent="1">
          <mxGeometry x="205" y="154.69" width="100" height="40" as="geometry" />
        </mxCell>
        <mxCell id="mJIIwZMwGOgM9kil12BN-63" value="&lt;span&gt;&lt;font style=&quot;font-size: 10px;&quot;&gt;Modem 4G/5G (Backup)&lt;br&gt;192.168.0.3&lt;/font&gt;&lt;/span&gt;" style="text;html=1;align=center;verticalAlign=middle;resizable=0;points=[];autosize=1;strokeColor=none;fillColor=none;fontStyle=1" vertex="1" parent="1">
          <mxGeometry x="430" y="154.69" width="140" height="40" as="geometry" />
        </mxCell>
        <mxCell id="mJIIwZMwGOgM9kil12BN-64" value="&lt;span&gt;&lt;font style=&quot;font-size: 10px;&quot;&gt;Firewall/Roteador HA (Cluster)&lt;br&gt;192.168.1.1&lt;/font&gt;&lt;/span&gt;" style="text;html=1;align=center;verticalAlign=middle;resizable=0;points=[];autosize=1;strokeColor=none;fillColor=none;fontStyle=1" vertex="1" parent="1">
          <mxGeometry x="385" y="230" width="160" height="40" as="geometry" />
        </mxCell>
        <mxCell id="mJIIwZMwGOgM9kil12BN-65" value="&lt;span&gt;&lt;font style=&quot;font-size: 10px;&quot;&gt;Switch Principal&lt;br&gt;192.168.1.2&lt;/font&gt;&lt;/span&gt;" style="text;html=1;align=center;verticalAlign=middle;resizable=0;points=[];autosize=1;strokeColor=none;fillColor=none;fontStyle=1" vertex="1" parent="1">
          <mxGeometry x="270" y="270" width="100" height="40" as="geometry" />
        </mxCell>
        <mxCell id="mJIIwZMwGOgM9kil12BN-66" value="&lt;span&gt;&lt;font style=&quot;font-size: 10px;&quot;&gt;Switch PoE&lt;br&gt;192.168.1.3&lt;/font&gt;&lt;/span&gt;" style="text;html=1;align=center;verticalAlign=middle;resizable=0;points=[];autosize=1;strokeColor=none;fillColor=none;fontStyle=1" vertex="1" parent="1">
          <mxGeometry x="180" y="264.75" width="80" height="40" as="geometry" />
        </mxCell>
        <mxCell id="mJIIwZMwGOgM9kil12BN-67" value="&lt;span&gt;&lt;font style=&quot;font-size: 10px;&quot;&gt;Switch de Backup&lt;br&gt;192.168.1.4&lt;/font&gt;&lt;/span&gt;" style="text;html=1;align=center;verticalAlign=middle;resizable=0;points=[];autosize=1;strokeColor=none;fillColor=none;fontStyle=1" vertex="1" parent="1">
          <mxGeometry x="512" y="300" width="110" height="40" as="geometry" />
        </mxCell>
        <mxCell id="mJIIwZMwGOgM9kil12BN-68" value="&lt;span&gt;&lt;font style=&quot;font-size: 10px;&quot;&gt;CÃ¢meras IP&lt;br&gt;192.168.20.10 &lt;br&gt;192.168.20.11&lt;br&gt;192.168.20.12&lt;br&gt;192.168.20.13&lt;/font&gt;&lt;/span&gt;" style="text;html=1;align=center;verticalAlign=middle;resizable=0;points=[];autosize=1;strokeColor=none;fillColor=none;fontStyle=1" vertex="1" parent="1">
          <mxGeometry x="60" y="304.75" width="90" height="90" as="geometry" />
        </mxCell>
        <mxCell id="mJIIwZMwGOgM9kil12BN-69" value="&lt;span&gt;Servidor&lt;br&gt;+ Backup em nuvem&lt;br&gt;Controle de estoque&lt;br&gt;DHCP / DNS&lt;br&gt;192.168.40.10&lt;/span&gt;" style="text;html=1;align=center;verticalAlign=middle;resizable=0;points=[];autosize=1;strokeColor=none;fillColor=none;fontSize=10;fontStyle=1" vertex="1" parent="1">
          <mxGeometry x="110" y="479.75" width="120" height="70" as="geometry" />
        </mxCell>
        <mxCell id="mJIIwZMwGOgM9kil12BN-70" value="&lt;span&gt;&lt;font style=&quot;font-size: 10px;&quot;&gt;Roteador 1&lt;br&gt;192.168.1.5&lt;/font&gt;&lt;/span&gt;" style="text;html=1;align=center;verticalAlign=middle;resizable=0;points=[];autosize=1;strokeColor=none;fillColor=none;fontStyle=1" vertex="1" parent="1">
          <mxGeometry x="328" y="434.75" width="80" height="40" as="geometry" />
        </mxCell>
        <mxCell id="mJIIwZMwGOgM9kil12BN-71" value="&lt;span&gt;&lt;font style=&quot;font-size: 10px;&quot;&gt;Terminais de PDV&lt;br&gt;192.168.10.10&lt;/font&gt;&lt;/span&gt;&lt;div&gt;&lt;span&gt;&lt;font style=&quot;font-size: 10px;&quot;&gt;192.168.10.11&lt;br&gt;192.168.10.12&lt;/font&gt;&lt;/span&gt;&lt;/div&gt;" style="text;html=1;align=center;verticalAlign=middle;resizable=0;points=[];autosize=1;strokeColor=none;fillColor=none;fontStyle=1" vertex="1" parent="1">
          <mxGeometry x="317" y="600" width="110" height="70" as="geometry" />
        </mxCell>
        <mxCell id="mJIIwZMwGOgM9kil12BN-72" value="&lt;span&gt;&lt;font style=&quot;font-size: 9px;&quot;&gt;SSID Rede Interna&lt;br&gt;DHCP: Faixa 192.168.10.100 â 192.168.10.200&lt;/font&gt;&lt;/span&gt;" style="text;html=1;align=center;verticalAlign=middle;resizable=0;points=[];autosize=1;strokeColor=none;fillColor=none;fontStyle=1" vertex="1" parent="1">
          <mxGeometry x="550" y="570" width="220" height="40" as="geometry" />
        </mxCell>
        <mxCell id="mJIIwZMwGOgM9kil12BN-73" value="&lt;span&gt;&lt;font style=&quot;font-size: 9px;&quot;&gt;SSID Visitantes&lt;br&gt;DHCP: Faixa 192.168.50.100 â 192.168.50.200&lt;/font&gt;&lt;/span&gt;" style="text;html=1;align=center;verticalAlign=middle;resizable=0;points=[];autosize=1;strokeColor=none;fillColor=none;fontStyle=1" vertex="1" parent="1">
          <mxGeometry x="82" y="610" width="220" height="40" as="geometry" />
        </mxCell>
        <mxCell id="mJIIwZMwGOgM9kil12BN-74" value="&lt;span&gt;&lt;font style=&quot;font-size: 10px;&quot;&gt;MÃ¡quina de Pagamento&lt;br&gt;192.168.30.10&lt;/font&gt;&lt;/span&gt;" style="text;html=1;align=center;verticalAlign=middle;resizable=0;points=[];autosize=1;strokeColor=none;fillColor=none;fontStyle=1" vertex="1" parent="1">
          <mxGeometry x="605.7" y="450" width="140" height="40" as="geometry" />
        </mxCell>
        <mxCell id="mJIIwZMwGOgM9kil12BN-75" value="&lt;span&gt;&lt;font style=&quot;font-size: 10px;&quot;&gt;Roteador 3&lt;br&gt;192.168.1.7&lt;/font&gt;&lt;/span&gt;" style="text;html=1;align=center;verticalAlign=middle;resizable=0;points=[];autosize=1;strokeColor=none;fillColor=none;fontStyle=1" vertex="1" parent="1">
          <mxGeometry x="561" y="380" width="80" height="40" as="geometry" />
        </mxCell>
        <mxCell id="mJIIwZMwGOgM9kil12BN-76" value="&lt;span&gt;&lt;font style=&quot;font-size: 10px;&quot;&gt;Roteador 2&lt;br&gt;192.168.1.8&lt;/font&gt;&lt;/span&gt;" style="text;html=1;align=center;verticalAlign=middle;resizable=0;points=[];autosize=1;strokeColor=none;fillColor=none;fontStyle=1" vertex="1" parent="1">
          <mxGeometry x="405" y="394.75" width="80" height="40" as="geometry" />
        </mxCell>
        <mxCell id="mJIIwZMwGOgM9kil12BN-77" value="&lt;span&gt;&lt;font style=&quot;font-size: 10px;&quot;&gt;Impressora&lt;br&gt;192.168.10.20&lt;/font&gt;&lt;/span&gt;" style="text;html=1;align=center;verticalAlign=middle;resizable=0;points=[];autosize=1;strokeColor=none;fillColor=none;fontStyle=1" vertex="1" parent="1">
          <mxGeometry x="465" y="643" width="90" height="40" as="geometry" />
        </mxCell>
        <mxCell id="mJIIwZMwGOgM9kil12BN-78" value="" style="shape=mxgraph.networks2.icon;aspect=fixed;fillColor=#EDEDED;strokeColor=#000000;gradientColor=#5B6163;network2IconShadow=1;network2bgFillColor=none;network2Icon=mxgraph.networks2.ups;network2IconXOffset=-0.0006;network2IconYOffset=0.0003;network2IconW=0.62;network2IconH=1.0006;fontStyle=1" vertex="1" parent="1">
          <mxGeometry x="556" y="239.97" width="31" height="50.029999999999994" as="geometry" />
        </mxCell>
        <mxCell id="mJIIwZMwGOgM9kil12BN-79" value="&lt;span&gt;&lt;font style=&quot;font-size: 10px;&quot;&gt;No-Break (UPS)&lt;br&gt;192.168.1.6&lt;/font&gt;&lt;/span&gt;" style="text;html=1;align=center;verticalAlign=middle;resizable=0;points=[];autosize=1;strokeColor=none;fillColor=none;fontStyle=1" vertex="1" parent="1">
          <mxGeometry x="505.7" y="190" width="100" height="40" as="geometry" />
        </mxCell>
        <mxCell id="mJIIwZMwGOgM9kil12BN-80" value="" style="shape=image;html=1;verticalAlign=top;verticalLabelPosition=bottom;labelBackgroundColor=#ffffff;imageAspect=0;aspect=fixed;image=https://cdn3.iconfinder.com/data/icons/energy-and-power-glyph-24-px/24/Bolt_flashlight_lightning_power_thunder-128.png;fontStyle=1" vertex="1" parent="1">
          <mxGeometry x="537" y="264.75" width="24" height="24" as="geometry" />
        </mxCell>
        <mxCell id="mJIIwZMwGOgM9kil12BN-81" value="" style="shape=image;html=1;verticalAlign=top;verticalLabelPosition=bottom;labelBackgroundColor=#ffffff;imageAspect=0;aspect=fixed;image=https://cdn3.iconfinder.com/data/icons/energy-and-power-glyph-24-px/24/Bolt_flashlight_lightning_power_thunder-128.png;fontStyle=1" vertex="1" parent="1">
          <mxGeometry x="381" y="251.25" width="24" height="24" as="geometry" />
        </mxCell>
        <mxCell id="mJIIwZMwGOgM9kil12BN-82" value="" style="shape=image;html=1;verticalAlign=top;verticalLabelPosition=bottom;labelBackgroundColor=#ffffff;imageAspect=0;aspect=fixed;image=https://cdn3.iconfinder.com/data/icons/energy-and-power-glyph-24-px/24/Bolt_flashlight_lightning_power_thunder-128.png;fontStyle=1" vertex="1" parent="1">
          <mxGeometry x="500" y="336" width="24" height="24" as="geometry" />
        </mxCell>
        <mxCell id="mJIIwZMwGOgM9kil12BN-83" value="" style="shape=image;html=1;verticalAlign=top;verticalLabelPosition=bottom;labelBackgroundColor=#ffffff;imageAspect=0;aspect=fixed;image=https://cdn3.iconfinder.com/data/icons/energy-and-power-glyph-24-px/24/Bolt_flashlight_lightning_power_thunder-128.png;fontStyle=1" vertex="1" parent="1">
          <mxGeometry x="384" y="336" width="24" height="24" as="geometry" />
        </mxCell>
        <mxCell id="mJIIwZMwGOgM9kil12BN-84" value="" style="shape=image;html=1;verticalAlign=top;verticalLabelPosition=bottom;labelBackgroundColor=#ffffff;imageAspect=0;aspect=fixed;image=https://cdn3.iconfinder.com/data/icons/energy-and-power-glyph-24-px/24/Bolt_flashlight_lightning_power_thunder-128.png;fontStyle=1" vertex="1" parent="1">
          <mxGeometry x="290" y="330" width="24" height="24" as="geometry" />
        </mxCell>
        <mxCell id="mJIIwZMwGOgM9kil12BN-85" value="" style="shape=image;html=1;verticalAlign=top;verticalLabelPosition=bottom;labelBackgroundColor=#ffffff;imageAspect=0;aspect=fixed;image=https://cdn3.iconfinder.com/data/icons/energy-and-power-glyph-24-px/24/Bolt_flashlight_lightning_power_thunder-128.png;fontStyle=1" vertex="1" parent="1">
          <mxGeometry x="320" y="490" width="24" height="24" as="geometry" />
        </mxCell>
        <mxCell id="mJIIwZMwGOgM9kil12BN-86" value="" style="shape=image;html=1;verticalAlign=top;verticalLabelPosition=bottom;labelBackgroundColor=#ffffff;imageAspect=0;aspect=fixed;image=https://cdn3.iconfinder.com/data/icons/energy-and-power-glyph-24-px/24/Bolt_flashlight_lightning_power_thunder-128.png;fontStyle=1" vertex="1" parent="1">
          <mxGeometry x="230.92" y="509" width="24" height="24" as="geometry" />
        </mxCell>
        <mxCell id="mJIIwZMwGOgM9kil12BN-87" value="" style="shape=image;html=1;verticalAlign=top;verticalLabelPosition=bottom;labelBackgroundColor=#ffffff;imageAspect=0;aspect=fixed;image=https://cdn3.iconfinder.com/data/icons/energy-and-power-glyph-24-px/24/Bolt_flashlight_lightning_power_thunder-128.png;fontStyle=1" vertex="1" parent="1">
          <mxGeometry x="476" y="442.75" width="24" height="24" as="geometry" />
        </mxCell>
        <mxCell id="mJIIwZMwGOgM9kil12BN-88" value="" style="shape=image;html=1;verticalAlign=top;verticalLabelPosition=bottom;labelBackgroundColor=#ffffff;imageAspect=0;aspect=fixed;image=https://cdn3.iconfinder.com/data/icons/energy-and-power-glyph-24-px/24/Bolt_flashlight_lightning_power_thunder-128.png;fontStyle=1" vertex="1" parent="1">
          <mxGeometry x="550" y="430" width="24" height="24" as="geometry" />
        </mxCell>
        <mxCell id="mJIIwZMwGOgM9kil12BN-89" value="" style="shape=image;html=1;verticalAlign=top;verticalLabelPosition=bottom;labelBackgroundColor=#ffffff;imageAspect=0;aspect=fixed;image=https://cdn3.iconfinder.com/data/icons/energy-and-power-glyph-24-px/24/Bolt_flashlight_lightning_power_thunder-128.png;fontStyle=1" vertex="1" parent="1">
          <mxGeometry x="314" y="540.52" width="24" height="24" as="geometry" />
        </mxCell>
        <mxCell id="mJIIwZMwGOgM9kil12BN-90" value="" style="shape=image;html=1;verticalAlign=top;verticalLabelPosition=bottom;labelBackgroundColor=#ffffff;imageAspect=0;aspect=fixed;image=https://cdn3.iconfinder.com/data/icons/energy-and-power-glyph-24-px/24/Bolt_flashlight_lightning_power_thunder-128.png;fontStyle=1" vertex="1" parent="1">
          <mxGeometry x="366" y="540.52" width="24" height="24" as="geometry" />
        </mxCell>
        <mxCell id="mJIIwZMwGOgM9kil12BN-91" value="" style="shape=image;html=1;verticalAlign=top;verticalLabelPosition=bottom;labelBackgroundColor=#ffffff;imageAspect=0;aspect=fixed;image=https://cdn3.iconfinder.com/data/icons/energy-and-power-glyph-24-px/24/Bolt_flashlight_lightning_power_thunder-128.png;fontStyle=1" vertex="1" parent="1">
          <mxGeometry x="420" y="540.52" width="24" height="24" as="geometry" />
        </mxCell>
        <mxCell id="mJIIwZMwGOgM9kil12BN-105" value="" style="endArrow=none;html=1;rounded=0;fontSize=8;entryX=-0.018;entryY=0.299;entryDx=0;entryDy=0;entryPerimeter=0;fontStyle=1" edge="1" parent="1" target="mJIIwZMwGOgM9kil12BN-107">
          <mxGeometry width="50" height="50" relative="1" as="geometry">
            <mxPoint x="640" y="160" as="sourcePoint" />
            <mxPoint x="680" y="120" as="targetPoint" />
          </mxGeometry>
        </mxCell>
        <mxCell id="mJIIwZMwGOgM9kil12BN-107" value="&lt;span&gt;ConexÃ£o por Cabo&amp;nbsp;&lt;/span&gt;" style="text;html=1;align=center;verticalAlign=middle;resizable=0;points=[];autosize=1;strokeColor=none;fillColor=none;fontStyle=1" vertex="1" parent="1">
          <mxGeometry x="670" y="130" width="130" height="30" as="geometry" />
        </mxCell>
        <mxCell id="mJIIwZMwGOgM9kil12BN-108" value="&lt;span&gt;LEGENDAS&lt;/span&gt;" style="text;html=1;align=center;verticalAlign=middle;resizable=0;points=[];autosize=1;strokeColor=none;fillColor=none;fontStyle=1" vertex="1" parent="1">
          <mxGeometry x="670" y="94.69" width="90" height="30" as="geometry" />
        </mxCell>
        <mxCell id="mJIIwZMwGOgM9kil12BN-111" value="" style="endArrow=none;dashed=1;html=1;rounded=0;fontStyle=1" edge="1" parent="1">
          <mxGeometry width="50" height="50" relative="1" as="geometry">
            <mxPoint x="640" y="190" as="sourcePoint" />
            <mxPoint x="670" y="170" as="targetPoint" />
          </mxGeometry>
        </mxCell>
        <mxCell id="mJIIwZMwGOgM9kil12BN-112" value="&lt;span&gt;RedundÃ¢ncia&amp;nbsp;&lt;/span&gt;" style="text;html=1;align=center;verticalAlign=middle;resizable=0;points=[];autosize=1;strokeColor=none;fillColor=none;fontStyle=1" vertex="1" parent="1">
          <mxGeometry x="670" y="160" width="100" height="30" as="geometry" />
        </mxCell>
        <mxCell id="mJIIwZMwGOgM9kil12BN-115" value="&lt;span&gt;VLAN 10&lt;/span&gt;" style="text;html=1;align=center;verticalAlign=middle;resizable=0;points=[];autosize=1;strokeColor=none;fillColor=none;fontStyle=1" vertex="1" parent="1">
          <mxGeometry x="670" y="190" width="70" height="30" as="geometry" />
        </mxCell>
        <mxCell id="mJIIwZMwGOgM9kil12BN-116" value="" style="endArrow=none;html=1;rounded=0;fontColor=#007FFF;fillColor=#dae8fc;strokeColor=#6c8ebf;fontStyle=1" edge="1" parent="1">
          <mxGeometry width="50" height="50" relative="1" as="geometry">
            <mxPoint x="640" y="220" as="sourcePoint" />
            <mxPoint x="670" y="200" as="targetPoint" />
          </mxGeometry>
        </mxCell>
        <mxCell id="mJIIwZMwGOgM9kil12BN-117" value="" style="endArrow=none;html=1;rounded=0;fontColor=#007FFF;fillColor=#d5e8d4;strokeColor=#82b366;fontStyle=1" edge="1" parent="1">
          <mxGeometry width="50" height="50" relative="1" as="geometry">
            <mxPoint x="640" y="250" as="sourcePoint" />
            <mxPoint x="670" y="230" as="targetPoint" />
          </mxGeometry>
        </mxCell>
        <mxCell id="mJIIwZMwGOgM9kil12BN-118" value="&lt;span&gt;VLAN 20&lt;/span&gt;" style="text;html=1;align=center;verticalAlign=middle;resizable=0;points=[];autosize=1;strokeColor=none;fillColor=none;fontStyle=1" vertex="1" parent="1">
          <mxGeometry x="670" y="221.25" width="70" height="30" as="geometry" />
        </mxCell>
        <mxCell id="mJIIwZMwGOgM9kil12BN-119" value="" style="endArrow=none;html=1;rounded=0;fontColor=#007FFF;fillColor=#f8cecc;strokeColor=#b85450;fontStyle=1" edge="1" parent="1">
          <mxGeometry width="50" height="50" relative="1" as="geometry">
            <mxPoint x="640" y="280" as="sourcePoint" />
            <mxPoint x="670" y="260" as="targetPoint" />
          </mxGeometry>
        </mxCell>
        <mxCell id="mJIIwZMwGOgM9kil12BN-120" value="" style="endArrow=none;html=1;rounded=0;fontColor=#007FFF;fillColor=#e1d5e7;strokeColor=#9673a6;fontStyle=1" edge="1" parent="1">
          <mxGeometry width="50" height="50" relative="1" as="geometry">
            <mxPoint x="640" y="310" as="sourcePoint" />
            <mxPoint x="670" y="290" as="targetPoint" />
          </mxGeometry>
        </mxCell>
        <mxCell id="mJIIwZMwGOgM9kil12BN-121" value="" style="endArrow=none;html=1;rounded=0;fontColor=#007FFF;fillColor=#e1d5e7;strokeColor=#FF66FF;fontStyle=1" edge="1" parent="1">
          <mxGeometry width="50" height="50" relative="1" as="geometry">
            <mxPoint x="640" y="340" as="sourcePoint" />
            <mxPoint x="670" y="320" as="targetPoint" />
          </mxGeometry>
        </mxCell>
        <mxCell id="mJIIwZMwGOgM9kil12BN-122" value="" style="endArrow=none;dashed=1;html=1;dashPattern=1 3;strokeWidth=2;rounded=0;fontStyle=1" edge="1" parent="1">
          <mxGeometry width="50" height="50" relative="1" as="geometry">
            <mxPoint x="640" y="370" as="sourcePoint" />
            <mxPoint x="670" y="350" as="targetPoint" />
          </mxGeometry>
        </mxCell>
        <mxCell id="mJIIwZMwGOgM9kil12BN-123" value="&lt;span&gt;VLAN 30&lt;/span&gt;" style="text;html=1;align=center;verticalAlign=middle;resizable=0;points=[];autosize=1;strokeColor=none;fillColor=none;fontStyle=1" vertex="1" parent="1">
          <mxGeometry x="670" y="251.25" width="70" height="30" as="geometry" />
        </mxCell>
        <mxCell id="mJIIwZMwGOgM9kil12BN-124" value="&lt;span&gt;VLAN 40&lt;/span&gt;" style="text;html=1;align=center;verticalAlign=middle;resizable=0;points=[];autosize=1;strokeColor=none;fillColor=none;fontStyle=1" vertex="1" parent="1">
          <mxGeometry x="670" y="281.25" width="70" height="30" as="geometry" />
        </mxCell>
        <mxCell id="mJIIwZMwGOgM9kil12BN-126" value="&lt;span&gt;VLAN 50&lt;/span&gt;" style="text;html=1;align=center;verticalAlign=middle;resizable=0;points=[];autosize=1;strokeColor=none;fillColor=none;fontStyle=1" vertex="1" parent="1">
          <mxGeometry x="670" y="311.25" width="70" height="30" as="geometry" />
        </mxCell>
        <mxCell id="mJIIwZMwGOgM9kil12BN-127" value="&lt;span&gt;ConexÃ£o sem fio&lt;/span&gt;" style="text;html=1;align=center;verticalAlign=middle;resizable=0;points=[];autosize=1;strokeColor=none;fillColor=none;fontStyle=1" vertex="1" parent="1">
          <mxGeometry x="670" y="345.25" width="120" height="30" as="geometry" />
        </mxCell>
        <mxCell id="mJIIwZMwGOgM9kil12BN-128" value="" style="shape=image;html=1;verticalAlign=top;verticalLabelPosition=bottom;labelBackgroundColor=#ffffff;imageAspect=0;aspect=fixed;image=https://cdn3.iconfinder.com/data/icons/energy-and-power-glyph-24-px/24/Bolt_flashlight_lightning_power_thunder-128.png;fontStyle=1" vertex="1" parent="1">
          <mxGeometry x="646" y="386" width="24" height="24" as="geometry" />
        </mxCell>
        <mxCell id="mJIIwZMwGOgM9kil12BN-129" value="No-Break" style="text;html=1;align=center;verticalAlign=middle;resizable=0;points=[];autosize=1;strokeColor=none;fillColor=none;fontStyle=1" vertex="1" parent="1">
          <mxGeometry x="670" y="380" width="80" height="30" as="geometry" />
        </mxCell>
        <mxCell id="mJIIwZMwGOgM9kil12BN-130" value="" style="swimlane;startSize=0;" vertex="1" parent="1">
          <mxGeometry x="635" y="100" width="155" height="320" as="geometry" />
        </mxCell>
      </root>
    </mxGraphModel>
  </diagram>
</mxfile>
